<?xml version="1.0" encoding="utf-8"?>
<!-- Generator: Adobe Illustrator 19.0.0, SVG Export Plug-In . SVG Version: 6.00 Build 0)  -->
<svg version="1.1" id="Calque_1" xmlns="http://www.w3.org/2000/svg" xmlns:xlink="http://www.w3.org/1999/xlink" x="0px" y="0px"
	 viewBox="444 -104 2500 1000" style="enable-background:new 444 -104 2500 1000;" xml:space="preserve">
<style type="text/css">
	.st0{opacity:0.52;fill:#999898;enable-background:new    ;}
	.st1{opacity:0.38;fill:#E5E6E5;enable-background:new    ;}
	.st2{fill:#3C9A93;}
	.st3{opacity:0.37;fill:#999898;enable-background:new    ;}
	.st4{opacity:0.45;fill:#B3B3B3;enable-background:new    ;}
	.st5{fill:#FFFFFF;}
	.st6{fill:#000100;}
</style>
<g>
	<polygon class="st0" points="1163.5,396.7 1772.2,-79.2 2379.2,395.3 1770.5,871.2 	"/>
	<polygon class="st1" points="1163.5,396.5 1772.2,58.6 2379.2,395.5 1774.7,737.9 	"/>
	<polygon class="st2" points="1163.5,396.3 1774.7,157.2 2379.2,395.7 1778,633.2 	"/>
	<polygon class="st3" points="1163.5,396.3 1621.7,-29 2379.2,396 1620.6,825.1 	"/>
	<polygon class="st4" points="1163.5,396.4 1469.8,36.3 2379.2,396 1469.8,754.8 	"/>
	<polygon class="st4" points="2385.8,396.4 2083.8,36 1163.5,396.7 2079.5,752.6 	"/>
	<polygon class="st3" points="2385.8,396.3 1927.6,-29 1163.5,396.7 1928.7,825.1 	"/>
	<g>
		<rect x="2011.2" y="356.9" class="st5" width="104.2" height="94.8"/>
		<rect x="2157.2" y="356.9" class="st5" width="104.2" height="94.8"/>
		<rect x="2297.8" y="356.9" class="st5" width="104.2" height="94.8"/>
		<rect x="1435.6" y="362.9" class="st5" width="91.2" height="83.8"/>
		<rect x="1581.9" y="362.9" class="st5" width="91.2" height="83.8"/>
		<rect x="1728.2" y="362.9" class="st5" width="91.2" height="83.8"/>
		<rect x="1874.6" y="362.9" class="st5" width="91.2" height="83.8"/>
		<rect x="1104" y="362.9" class="st5" width="91.2" height="83.8"/>
		<path class="st6" d="M967.8,368.7h14.5v58.2h58.2v14.5h-72.7V368.7z"/>
		<path class="st6" d="M1215.1,339.6v130.9h-130.9V339.6H1215.1z M1163.7,426.8l5.7,14.5h16.6l-29.1-72.7h-14.5l-29.1,72.7h16.6
			l5.7-14.5H1163.7z M1141.2,412.3l8.4-21.8l8.4,21.8H1141.2z"/>
		<path class="st6" d="M1300.3,368.7h72.7v14.5h-58.2v14.5h58.2v14.5h-58.2v29.1h-14.5V368.7z"/>
		<path class="st6" d="M1547.6,339.6v130.9h-130.9V339.6H1547.6z M1496.2,426.8l5.7,14.5h16.6l-29.1-72.7h-14.5l-29.1,72.7h16.6
			l5.7-14.5H1496.2z M1473.7,412.3l8.4-21.8l8.4,21.8H1473.7z"/>
		<path class="st6" d="M1693,339.6v130.9h-130.9V339.6H1693z M1591.2,368.7v72.7h72.7v-72.7L1591.2,368.7L1591.2,368.7z
			 M1649.4,397.7H1613v14.5h36.4v14.5h-43.6v-43.6h43.6V397.7z"/>
		<path class="st6" d="M1838.4,339.6v130.9h-130.9V339.6H1838.4z M1791.4,441.4h18l-25.7-29.1h25.7v-43.6h-72.7v72.7h14.5v-29.1
			h14.5L1791.4,441.4z M1794.8,383.2v14.5h-43.6v-14.5H1794.8z"/>
		<path class="st6" d="M1983.9,339.6v130.9H1853V339.6H1983.9z M1911.2,368.7v72.7h14.5v-72.7L1911.2,368.7L1911.2,368.7z"/>
		<path class="st6" d="M2129.3,339.6v130.9h-130.9V339.6H2129.3z M2100.2,368.7h-72.7v72.7h72.7V368.7z M2069.5,426.8l-13-14.5h17.7
			l11.4,12.7v-41.8H2042v43.6L2069.5,426.8L2069.5,426.8z"/>
		<path class="st6" d="M2274.7,339.6v130.9h-130.9V339.6H2274.7z M2172.9,368.7v72.7h72.7v-72.7h-14.5v58.2h-43.6v-58.2
			L2172.9,368.7L2172.9,368.7z"/>
		<path class="st6" d="M2420.2,339.6v130.9h-130.9V339.6H2420.2z M2318.4,441.4h72.7v-14.5h-58.2v-43.6h58.2v-14.5h-72.7V441.4z
			 M2340.2,412.3h50.9v-14.5h-50.9V412.3z"/>
	</g>
</g>
</svg>
